<svg width="441" height="158" viewBox="0 0 441 158" fill="none" xmlns="http://www.w3.org/2000/svg">
<path d="M87.448 117L63.064 87.144V117H49.624V49.992H63.064V80.04L87.448 49.992H103.672L76.024 83.208L104.44 117H87.448ZM154.368 104.232H127.68L123.264 117H109.152L133.248 49.896H148.896L172.992 117H158.784L154.368 104.232ZM150.72 93.48L141.024 65.448L131.328 93.48H150.72ZM239.311 117H225.871L195.439 71.016V117H181.999V49.896H195.439L225.871 95.976V49.896H239.311V117ZM298.193 49.992V60.84H280.337V117H266.897V60.84H249.041V49.992H298.193ZM321.439 49.992V117H307.999V49.992H321.439ZM392.03 117H378.59L348.158 71.016V117H334.718V49.896H348.158L378.59 95.976V49.896H392.03V117Z" fill="white"/>
</svg>
